<svg width="301" height="56" fill="none" xmlns="http://www.w3.org/2000/svg"><g clip-path="url(#clip0_1_258)" fill-rule="evenodd" clip-rule="evenodd" fill="#1B1918"><path d="M0 26.014h4.748V5.823H0v20.191zM11.888 5.823H5.387v4.154h6.5V5.823zM25.12 22.668h3.226v-4.155h-2.275l1.896-8.57c.063-.26.12-.433.38-.48V5.5c-2.536.063-4.034.924-4.552 3.202l-4.288 17.307h4.835l.778-3.346v.005zm7.11 0l.745 3.346h4.868L33.527 8.706c-.552-2.277-2.021-3.143-4.552-3.201v3.981c.236.063.322.236.37.458l1.96 8.57h-2.33v4.154h3.256zm16.623 3.346h4.772V5.823h-4.772v20.191zm8.373-6.432c2.16 0 4.167-.693 5.526-2.31 1.061-1.214 1.47-2.856 1.47-4.565 0-1.844-.52-3.635-1.926-5.012-1.267-1.16-2.934-1.877-5.065-1.877h-2.958v4.207h2.958a2.46 2.46 0 011.502.496c.63.607.682 1.387.682 2.19 0 .867-.11 1.619-.518 2.08-.37.468-1.061.607-1.666.607h-2.958v4.189h2.958l-.005-.005zm20.741 3.081h3.227V18.51h-2.28l1.896-8.57c.057-.26.12-.433.379-.482V5.5c-2.535.063-4.028.924-4.552 3.202L72.35 26.009h4.835l.778-3.346h.004zm7.11 0l.745 3.346h4.868L86.374 8.702c-.552-2.278-2.021-3.144-4.551-3.202v3.981c.235.063.321.236.37.458l1.958 8.57h-2.333v4.154h3.26zm21.41-16.84h-4.782v20.191h4.782v-8.28h5.694v-4.208h-5.694V5.823zm11.076 0h-4.748v20.191h4.748V5.823zm20.593 4.848h-4.802v15.343h4.802V10.666v.005zm4.522-4.848h-13.894v4.207h13.894V5.823zM6.39 42.388c1.354 0 2.243.861 2.91 2.941l1.493 5.166h5.354l-2.502-6.899c-.494-1.324-1.47-3.485-2.962-4.241l5.118-9.056h-5.354l-4.08 8.074h-.922v4.01h.95l-.005.005zM4.81 30.304H0v20.191h4.81V30.304zm18.61 16.84h3.227V42.99h-2.28l1.9-8.57c.058-.26.12-.433.38-.486v-3.958c-2.54.063-4.033.925-4.552 3.207L17.813 50.49h4.825l.778-3.35.004.004zm7.111 0l.744 3.351h4.869l-4.317-17.307c-.552-2.278-2.02-3.144-4.546-3.207v3.982c.23.057.317.236.37.457l1.958 8.57h-2.328v4.154h3.25zm22.58-16.84H48.31v20.191h4.801V30.304zM42.467 36.62v-6.316h-4.748v6.316c0 4.179 2.91 6.577 7.336 6.577h2.617v-4.04h-2.617c-1.901 0-2.588-.953-2.588-2.537zm28.198 13.875v-4.179h-6.252c-1.469 0-2.381-1.073-2.381-2.224v-7.12c0-1.45.864-2.46 2.381-2.46h6.252v-4.208h-6.252c-5.089 0-7.163 2.941-7.163 5.85v8.285c0 3.23 2.333 6.056 7.163 6.056h6.252zM69.484 38.32h-6.818v4.188h6.818V38.32zm9.52 5.772v-7.12c0-1.45.898-2.46 2.415-2.46v-4.208c-5.118 0-7.216 2.941-7.216 5.85v8.285c0 3.23 2.358 6.056 7.216 6.056v-4.179c-1.469 0-2.415-1.073-2.415-2.224zm8.172-13.788h-5.118v4.207h5.118v-4.207zm0 16.012h-5.118V50.5h5.118v-4.184zm11.912-11.164h-4.81V50.5h4.81V35.152zm4.513-4.848H89.706v4.207h13.895v-4.207zm11.048 4.155c1.584 0 2.391.52 2.362 1.93 0 1.3-.951 1.93-2.247 1.93h-2.242v3.982h2.76c1.556 0 2.209.751 2.209 1.94 0 1.324-.485 2.19-2.036 2.19h-2.933V50.5h2.674c3.971 0 7.015-1.902 7.015-5.797 0-2.253-1.119-3.87-2.785-4.501 1.171-.78 2.098-2.166 2.156-4.068.11-3.924-2.795-5.826-6.765-5.826h-2.295v4.155h2.122l.005-.005zm-7.423 16.036h4.662V30.304h-4.662v20.191zm23.046-3.35h3.226V42.99h-2.28l1.896-8.57c.058-.26.12-.433.38-.486v-3.958c-2.54.063-4.029.925-4.552 3.207l-4.288 17.307h4.835l.778-3.35.005.004zm7.115 0l.745 3.35H143l-4.316-17.307c-.552-2.278-2.022-3.144-4.552-3.207v3.982c.235.057.322.236.37.457l1.959 8.57h-2.334v4.154h3.26z"/></g><g opacity=".7" fill="#000"><path d="M164 56V0h-2v56h2z" mask="url(#path-3-inside-1_1_258)"/><path d="M184.68 24V12.8h8.64V24h-1.2V13.92h-6.24V24h-1.2zm11.6 3.36V16.32h1.12v1.12c.181-.245.4-.459.656-.64a3.244 3.244 0 011.984-.64c1.056 0 1.947.379 2.672 1.136.725.757 1.088 1.712 1.088 2.864s-.363 2.107-1.088 2.864c-.725.757-1.616 1.136-2.672 1.136a3.244 3.244 0 01-1.984-.64 2.87 2.87 0 01-.656-.64v4.48h-1.12zm3.76-4.24c.736 0 1.36-.277 1.872-.832.512-.555.768-1.264.768-2.128 0-.864-.256-1.573-.768-2.128-.512-.555-1.136-.832-1.872-.832-.693 0-1.307.288-1.84.864-.533.576-.8 1.275-.8 2.096 0 .821.267 1.52.8 2.096.533.576 1.147.864 1.84.864zm11.884-.112c-.758.768-1.68 1.152-2.768 1.152-1.088 0-2.016-.384-2.784-1.152-.758-.779-1.136-1.728-1.136-2.848 0-1.12.378-2.064 1.136-2.832.768-.779 1.696-1.168 2.784-1.168 1.088 0 2.01.39 2.768 1.168.768.768 1.152 1.712 1.152 2.832 0 1.12-.384 2.07-1.152 2.848zm-4.752-.752c.554.576 1.216.864 1.984.864s1.424-.283 1.968-.848c.554-.576.832-1.28.832-2.112 0-.832-.278-1.53-.832-2.096-.544-.576-1.2-.864-1.968-.864s-1.43.288-1.984.864c-.544.565-.816 1.264-.816 2.096 0 .821.272 1.52.816 2.096zM215.077 24v-7.68h1.12v5.76l4.64-5.76h.96V24h-1.12v-5.76l-4.64 5.76h-.96zm8.401-1.2l.72-.72c.171.213.363.39.576.528a2.723 2.723 0 001.584.512c.608 0 1.067-.117 1.376-.352a1.11 1.11 0 00.464-.928 1.11 1.11 0 00-.464-.928c-.309-.235-.768-.352-1.376-.352h-.88v-1.04h.88c.459 0 .827-.117 1.104-.352.277-.235.416-.517.416-.848a.97.97 0 00-.384-.8c-.256-.213-.635-.32-1.136-.32-.523 0-.992.15-1.408.448a3.032 3.032 0 00-.512.432l-.8-.8c.16-.17.395-.357.704-.56a3.943 3.943 0 012.016-.56c.768 0 1.397.219 1.888.656.501.427.752.928.752 1.504 0 .587-.203 1.04-.608 1.36a1.69 1.69 0 01-.592.32c.267.064.517.17.752.32.512.341.768.848.768 1.52 0 .64-.261 1.19-.784 1.648-.512.448-1.237.672-2.176.672a3.772 3.772 0 01-2.16-.672 3.703 3.703 0 01-.72-.688zm7.927 1.2v-7.68h3.52c.715 0 1.28.187 1.696.56.416.373.624.853.624 1.44 0 .47-.16.875-.48 1.216a2.94 2.94 0 01-.48.384c.245.085.459.203.64.352.427.363.64.859.64 1.488 0 .693-.219 1.243-.656 1.648-.427.395-1.035.592-1.824.592h-3.68zm1.12-4.56h2.4c.8 0 1.2-.347 1.2-1.04 0-.693-.4-1.04-1.2-1.04h-2.4v2.08zm0 3.52h2.56c.907 0 1.36-.427 1.36-1.28s-.453-1.28-1.36-1.28h-2.56v2.56zm13.242.048c-.757.768-1.68 1.152-2.768 1.152-1.088 0-2.016-.384-2.784-1.152-.757-.779-1.136-1.728-1.136-2.848 0-1.12.379-2.064 1.136-2.832.768-.779 1.696-1.168 2.784-1.168 1.088 0 2.011.39 2.768 1.168.768.768 1.152 1.712 1.152 2.832 0 1.12-.384 2.07-1.152 2.848zm-4.752-.752c.555.576 1.216.864 1.984.864s1.424-.283 1.968-.848c.555-.576.832-1.28.832-2.112 0-.832-.277-1.53-.832-2.096-.544-.576-1.2-.864-1.968-.864s-1.429.288-1.984.864c-.544.565-.816 1.264-.816 2.096 0 .821.272 1.52.816 2.096zm6.626 3.664v-2.96h.56c.256-.267.48-.619.672-1.056.458-.981.688-2.096.688-3.344v-2.24h5.28v6.64h1.2v2.96h-1.12V24h-6.16v1.92h-1.12zm1.76-2.96h4.32v-5.6h-3.04v1.2c0 1.205-.214 2.31-.64 3.312-.192.427-.406.79-.64 1.088zm14.075-1.12l.8.72a4.782 4.782 0 01-.848.8c-.747.533-1.531.8-2.352.8-1.056 0-1.963-.39-2.72-1.168-.747-.779-1.12-1.723-1.12-2.832 0-1.11.373-2.053 1.12-2.832.757-.779 1.664-1.168 2.72-1.168.832 0 1.6.256 2.304.768.288.213.56.464.816.752l-.8.8a3.744 3.744 0 00-.592-.64 2.629 2.629 0 00-1.728-.64c-.736 0-1.376.288-1.92.864-.534.565-.8 1.264-.8 2.096 0 .832.266 1.536.8 2.112.544.565 1.184.848 1.92.848.608 0 1.2-.213 1.776-.64.245-.203.453-.416.624-.64zM267.79 24v-6.64h-2.72v-1.04h6.56v1.04h-2.72V24h-1.12zm5.443 0v-7.68h3.52c.715 0 1.28.187 1.696.56.416.373.624.853.624 1.44 0 .47-.16.875-.48 1.216a2.94 2.94 0 01-.48.384c.245.085.459.203.64.352.427.363.64.859.64 1.488 0 .693-.219 1.243-.656 1.648-.427.395-1.035.592-1.824.592h-3.68zm1.12-4.56h2.4c.8 0 1.2-.347 1.2-1.04 0-.693-.4-1.04-1.2-1.04h-2.4v2.08zm0 3.52h2.56c.907 0 1.36-.427 1.36-1.28s-.453-1.28-1.36-1.28h-2.56v2.56zm13.243.048c-.758.768-1.68 1.152-2.768 1.152-1.088 0-2.016-.384-2.784-1.152-.758-.779-1.136-1.728-1.136-2.848 0-1.12.378-2.064 1.136-2.832.768-.779 1.696-1.168 2.784-1.168 1.088 0 2.01.39 2.768 1.168.768.768 1.152 1.712 1.152 2.832 0 1.12-.384 2.07-1.152 2.848zm-4.752-.752c.554.576 1.216.864 1.984.864s1.424-.283 1.968-.848c.554-.576.832-1.28.832-2.112 0-.832-.278-1.53-.832-2.096-.544-.576-1.2-.864-1.968-.864s-1.43.288-1.984.864c-.544.565-.816 1.264-.816 2.096 0 .821.272 1.52.816 2.096zM183 45.92v-2.96h.56c.256-.267.48-.619.672-1.056.459-.981.688-2.096.688-3.344v-2.24h5.28v6.64h1.2v2.96h-1.12V44h-6.16v1.92H183zm1.76-2.96h4.32v-5.6h-3.04v1.2c0 1.205-.213 2.31-.64 3.312-.192.427-.405.79-.64 1.088zm8.395 1.04v-7.68h3.52c.715 0 1.28.187 1.696.56.416.373.624.853.624 1.44 0 .47-.16.875-.48 1.216a2.94 2.94 0 01-.48.384c.245.085.459.203.64.352.427.363.64.859.64 1.488 0 .693-.219 1.243-.656 1.648-.427.395-1.035.592-1.824.592h-3.68zm1.12-4.56h2.4c.8 0 1.2-.347 1.2-1.04 0-.693-.4-1.04-1.2-1.04h-2.4v2.08zm0 3.52h2.56c.907 0 1.36-.427 1.36-1.28s-.453-1.28-1.36-1.28h-2.56v2.56zm12.874-1.12l.72.72a3.854 3.854 0 01-.816.8c-.746.533-1.541.8-2.384.8-1.056 0-1.962-.39-2.72-1.168-.746-.779-1.12-1.723-1.12-2.832 0-1.11.374-2.053 1.12-2.832.747-.779 1.627-1.168 2.64-1.168 1.056 0 1.931.363 2.624 1.088.704.725 1.056 1.643 1.056 2.752 0 .053-.016.192-.048.416l-.032.16-6.24-.016c.043.693.326 1.296.848 1.808a2.648 2.648 0 001.872.752c.651 0 1.264-.213 1.84-.64.278-.224.491-.437.64-.64zm-5.2-2.24h5.2c-.085-.693-.368-1.264-.848-1.712a2.357 2.357 0 00-1.712-.688c-.672 0-1.258.235-1.76.704a2.75 2.75 0 00-.88 1.696zm8.315 7.76V36.32h1.12v1.12c.182-.245.4-.459.656-.64a3.247 3.247 0 011.984-.64c1.056 0 1.947.379 2.672 1.136.726.757 1.088 1.712 1.088 2.864s-.362 2.107-1.088 2.864c-.725.757-1.616 1.136-2.672 1.136a3.247 3.247 0 01-1.984-.64 2.89 2.89 0 01-.656-.64v4.48h-1.12zm3.76-4.24c.736 0 1.36-.277 1.872-.832.512-.555.768-1.264.768-2.128 0-.864-.256-1.573-.768-2.128-.512-.555-1.136-.832-1.872-.832-.693 0-1.306.288-1.84.864-.533.576-.8 1.275-.8 2.096 0 .821.267 1.52.8 2.096.534.576 1.147.864 1.84.864zm5.756.88v-7.68h1.12v3.28h4.4v-3.28h1.12V44h-1.12v-3.36h-4.4V44h-1.12zm9.203 0v-7.68h1.12v2.56h1.92c.875 0 1.557.235 2.048.704.501.459.752 1.077.752 1.856 0 .779-.251 1.403-.752 1.872-.491.459-1.168.688-2.032.688h-3.056zm7.28 0v-7.68h1.12V44h-1.12zm-6.16-1.04h1.936c.512 0 .917-.139 1.216-.416.299-.288.448-.656.448-1.104 0-.459-.155-.827-.464-1.104-.299-.277-.704-.416-1.216-.416h-1.92v3.04zm8.793 1.04l2.88-4-2.64-3.68h1.36l2 2.8 2-2.8h1.36l-2.64 3.68 2.88 4h-1.36l-2.24-3.12-2.24 3.12h-1.36zm10.895-1.2l.72-.72c.17.213.362.39.576.528a2.72 2.72 0 001.584.512c.608 0 1.066-.117 1.376-.352a1.11 1.11 0 00.464-.928 1.11 1.11 0 00-.464-.928c-.31-.235-.768-.352-1.376-.352h-.88v-1.04h.88c.458 0 .826-.117 1.104-.352.277-.235.416-.517.416-.848a.97.97 0 00-.384-.8c-.256-.213-.635-.32-1.136-.32-.523 0-.992.15-1.408.448a2.993 2.993 0 00-.512.432l-.8-.8c.16-.17.394-.357.704-.56a3.943 3.943 0 012.016-.56c.768 0 1.397.219 1.888.656.501.427.752.928.752 1.504 0 .587-.203 1.04-.608 1.36-.182.15-.379.256-.592.32.266.064.517.17.752.32.512.341.768.848.768 1.52 0 .64-.262 1.19-.784 1.648-.512.448-1.238.672-2.176.672a3.772 3.772 0 01-2.16-.672 3.648 3.648 0 01-.72-.688zm12.567 1.2v-1.04c-.16.224-.363.427-.608.608a3.201 3.201 0 01-1.872.592c-.779 0-1.43-.224-1.952-.672-.512-.459-.768-.981-.768-1.568 0-1.301.746-2.075 2.24-2.32l2.96-.48c0-.565-.182-1.024-.544-1.376-.352-.363-.811-.544-1.376-.544-.555 0-1.083.187-1.584.56-.235.203-.427.39-.576.56l-.72-.72c.202-.267.453-.507.752-.72.65-.48 1.36-.72 2.128-.72.874 0 1.6.283 2.176.848.576.565.864 1.27.864 2.112V44h-1.12zm0-3.44v-.48l-2.64.48c-.96.17-1.44.624-1.44 1.36 0 .341.138.63.416.864.288.224.682.336 1.184.336.736 0 1.333-.235 1.792-.704.458-.47.688-1.088.688-1.856zM266.03 44v-7.68h.88l3.04 3.84 3.04-3.84h.88V44h-1.12v-5.68l-2.8 3.52-2.8-3.52V44h-1.12zm10.406 0v-7.68h1.12v4.08l3.84-4.08h1.36l-2.96 3.12 3.28 4.56h-1.28l-2.72-3.76-1.52 1.6V44h-1.12zm14.05-.992c-.757.768-1.68 1.152-2.768 1.152-1.088 0-2.016-.384-2.784-1.152-.757-.779-1.136-1.728-1.136-2.848 0-1.12.379-2.064 1.136-2.832.768-.779 1.696-1.168 2.784-1.168 1.088 0 2.011.39 2.768 1.168.768.768 1.152 1.712 1.152 2.832 0 1.12-.384 2.07-1.152 2.848zm-4.752-.752c.555.576 1.216.864 1.984.864s1.424-.283 1.968-.848c.555-.576.832-1.28.832-2.112 0-.832-.277-1.53-.832-2.096-.544-.576-1.2-.864-1.968-.864s-1.429.288-1.984.864c-.544.565-.816 1.264-.816 2.096 0 .821.272 1.52.816 2.096zM293.639 44v-7.68h3.52c.715 0 1.28.187 1.696.56.416.373.624.853.624 1.44 0 .47-.16.875-.48 1.216a2.856 2.856 0 01-.48.384c.246.085.459.203.64.352.427.363.64.859.64 1.488 0 .693-.218 1.243-.656 1.648-.426.395-1.034.592-1.824.592h-3.68zm1.12-4.56h2.4c.8 0 1.2-.347 1.2-1.04 0-.693-.4-1.04-1.2-1.04h-2.4v2.08zm0 3.52h2.56c.907 0 1.36-.427 1.36-1.28s-.453-1.28-1.36-1.28h-2.56v2.56z"/></g><defs><clipPath id="clip0_1_258"><path fill="#fff" transform="translate(0 5.5)" d="M0 0h143v45H0z"/></clipPath></defs></svg>