<?xml version="1.0" encoding="utf-8"?><svg viewBox="0 0 136 112" xmlns="http://www.w3.org/2000/svg" xmlns:xlink="http://www.w3.org/1999/xlink"><style>:root>svg{display:none}:root>svg:target{display:block}</style><svg fill="none" viewBox="0 0 136 39" id="icon-cdek" xmlns="http://www.w3.org/2000/svg"><path d="M22.076.208c-.055.042-.466.124-.919.165-1.123.11-2 .274-3.289.63-.603.165-1.206.315-1.329.315-.137.014-.247.069-.247.11 0 .055-.137.15-.301.192-.713.22-2.275.96-3.344 1.59-4.714 2.782-8.47 7.784-10.744 14.307-.288.863-.63 2.056-.74 2.7-.028.205-.096.438-.137.493-.11.178-.343 1.604-.439 2.631-.04.48-.123.973-.178 1.097-.11.233-.096 2.823.014 3.152.04.11.15.671.246 1.233.179 1.124.288 1.425 1.124 3.152.754 1.549 2.659 3.495 4.221 4.317 1.576.836 3.166 1.37 4.523 1.521.342.041.712.096.822.151.11.041 3.124.11 6.688.137 4.714.055 6.468.027 6.482-.082.027-.274.055-.356.137-.494.082-.123 1.26-3.713 1.63-4.933.138-.466.124-.672-.068-1.275-.439-1.315-1.768-2.11-3.974-2.37-.603-.069-2.714-.124-4.673-.11-3.563.014-3.59.014-4.262-.329-1.261-.644-2.18-1.973-2.29-3.29-.027-.37-.095-.698-.136-.74-.11-.109-.11-1.89 0-2 .041-.041.096-.343.123-.672.082-1.041.22-1.658.685-3.07 1.179-3.576 3.33-6.77 5.592-8.304.863-.59 1.823-.987 2.056-.836.082.041.095.014.04-.069-.068-.11.042-.164.357-.164.247 0 3.11-.014 6.345-.027l5.893-.042.767-.356c1.494-.699 2.056-1.562 3.18-4.851.41-1.206.78-2.289.836-2.398.219-.562.493-1.412.452-1.453C37.137.154 22.172.113 22.076.208zM49.498.14c-4.4.027-7.99.069-7.99.082 0 .028-.589 1.768-1.315 3.879-.727 2.096-1.398 4.125-1.508 4.508-.11.37-.26.809-.329.96-.068.15-.507 1.384-.959 2.74-.466 1.357-1.274 3.728-1.795 5.277-.535 1.548-1.179 3.453-1.453 4.248-.26.795-.534 1.466-.59 1.508-.068.04-.068.164-.013.26.096.15.795.164 3.796.096 3.92-.096 4.303-.11 4.303-.22 0-.04.274-.219.603-.383 1.193-.644 1.974-2.028 3.166-5.646.439-1.316.795-2.467.809-2.536a.93.93 0 01.096-.274c.054-.082.466-1.315.931-2.74l.85-2.604h3.111c3.467 0 3.577.027 4.386.945.534.617.712 1.247.698 2.55 0 .849-.26 2.836-.438 3.357a53.047 53.047 0 00-.59 1.918c-.082.33-1.301 3.207-1.59 3.728-1.931 3.522-4.316 5.961-6.618 6.756-.7.247-1.275.274-6.62.315-5.056.055-5.961.083-6.605.288-.411.137-.822.247-.918.247-.343.027-1.494 1.041-1.795 1.576-.247.466-2.495 6.852-2.495 7.112 0 .055 3.44.041 7.647 0 7.318-.082 8.922-.164 10.991-.575.26-.055.562-.11.658-.137 1.151-.22 4.427-1.563 4.523-1.85a.211.211 0 01.178-.124c.233 0 1.877-1.165 3-2.124 1.371-1.165 3.701-3.782 3.701-4.152 0-.082.041-.165.11-.192.137-.055 1.123-1.425 1.123-1.562 0-.055.083-.206.192-.316.247-.274.891-1.384 1-1.699.042-.123.124-.233.179-.233.055 0 .205-.26.356-.59.137-.314.357-.726.494-.904.137-.178.246-.438.246-.575 0-.151.055-.26.124-.26.068 0 .178-.138.232-.316.055-.164.26-.671.466-1.124.206-.452.508-1.11.672-1.466.507-1.138 1.343-3.632 1.59-4.77.027-.109.054-.218.068-.246.028-.014.041-.068.055-.137.014-.055.096-.411.192-.781.082-.384.178-.905.22-1.165.04-.26.136-.987.232-1.617.137-.987.11-3.083-.055-3.728-.027-.11-.123-.575-.219-1.027-.082-.453-.233-.973-.315-1.165a5.48 5.48 0 01-.192-.521c-.069-.356-.822-1.494-1.398-2.124-.397-.411-1-.836-1.658-1.165-.576-.274-1.083-.562-1.137-.644-.069-.082-.11-.069-.11.055 0 .137-.055.15-.165.04C61.352.675 59.75.388 58.27.292c-.302-.028-.535-.082-.493-.151.027-.055-.028-.082-.124-.069-.096.028-3.769.055-8.154.069zM77.715.208c-.055.055-.315.137-.575.164-1.686.233-2.7 1-3.22 2.412-.247.672-.48 1.412-.549 1.768-.027.124-.178.576-.329 1-.15.44-.233.796-.192.796.041 0 0 .095-.096.205-.096.11-.137.206-.082.206.055 0 0 .178-.11.383a3.65 3.65 0 00-.274.795c-.027.22-.068.398-.082.398-.014 0-.04.096-.068.205-.028.11-.083.302-.137.425-.055.165 0 .247.246.288.192.041 5.208.041 11.142.014 11.704-.055 11.69-.055 13.033-.823 1.041-.589 1.274-1.028 2.37-4.7.234-.795.508-1.686.617-1.987.096-.302.247-.782.33-1.056l.123-.52L88.843.153c-6.07-.027-11.073 0-11.128.055zM104.74.551c-.054.22-.137.439-.192.52-.054.07-.356.905-.657 1.851a160.99 160.99 0 01-.795 2.33c-.124.342-.247.712-.274.822-.028.11-.302.918-.617 1.782-.301.863-.562 1.63-.589 1.713a1.341 1.341 0 01-.096.274c-.055.068-.192.48-.315.89-.137.412-.288.878-.357 1.028-.109.247-.411 1.179-.493 1.508-.027.068-.302.85-.603 1.713-.315.863-.59 1.63-.603 1.713-.028.068-.11.315-.206.534-.082.22-.178.494-.205.617a3.846 3.846 0 01-.123.425c-.042.11-.179.507-.302.89-.137.37-.288.81-.343.96-.068.15-.192.52-.274.822-.082.302-.192.644-.233.754-.054.11-.096.233-.11.274-.013.041-.081.22-.164.411a25.96 25.96 0 00-.52 1.508 28.443 28.443 0 01-.549 1.576c-.096.219-.397 1.082-.657 1.918-.275.822-.576 1.727-.7 2.001-.11.274-.232.644-.273.822-.096.398-.672 2.056-.795 2.248-.041.068-.165.411-.26.754-.22.794-.193.699-.357 1.096-.233.562-1.028 2.905-1.069 3.18a1.528 1.528 0 01-.137.383c-.055.096 1.59.137 4.783.137h4.851l.096-.452c.055-.233.151-.507.206-.576.054-.082.15-.356.205-.616.055-.26.151-.548.206-.617.055-.082.233-.535.397-1.028.329-1.041 1.412-4.152 1.631-4.673.082-.206.219-.63.301-.96.096-.328.206-.67.275-.74.054-.082.15-.356.205-.616.055-.26.151-.548.206-.617.055-.082.137-.288.178-.48.096-.383.356-.698 1.124-1.301.657-.535 2.508-2.097 2.946-2.508.178-.165.37-.302.425-.302.137 0 .438.836 1.288 3.632.274.904.521 1.7.535 1.782.027.068.054.178.068.232.014.069.165.521.343 1.028.192.521.534 1.576.767 2.371.233.795.507 1.658.617 1.919.109.26.26.726.356 1.028.494 1.63 1.672 3.056 2.768 3.33.809.205 8.593.233 8.593.027 0-.082-.055-.247-.123-.384-.124-.233-.617-1.548-.631-1.672 0-.082-.466-1.343-.616-1.713a10.21 10.21 0 01-.288-.822c-.082-.301-.206-.617-.261-.685-.054-.082-.137-.315-.191-.548a7.275 7.275 0 00-.37-.987c-.137-.315-.261-.644-.261-.726 0-.096-.082-.357-.192-.59a12.622 12.622 0 01-.424-1.192c-.138-.411-.288-.822-.343-.89-.055-.083-.137-.33-.192-.549a5.862 5.862 0 00-.288-.822 9.533 9.533 0 01-.342-.96c-.096-.3-.247-.74-.343-.959-.301-.74-.726-1.905-.891-2.466-.096-.302-.205-.604-.246-.672-.055-.096-.384-1.014-1.371-3.769l-.205-.589.808-.74a261.87 261.87 0 013.399-3.083c2.521-2.275 4.18-3.77 4.481-4.084.206-.192.781-.727 1.302-1.179.507-.452 1.37-1.22 1.905-1.713a337.998 337.998 0 014.317-3.92c.411-.37 1.055-.959 1.439-1.315L136 .18H124.187l-1.151 1.26c-.631.686-1.398 1.508-1.7 1.824-2.891 3.028-6.208 6.55-8.359 8.907-.754.823-1.563 1.686-1.796 1.905-.219.233-.808.877-1.288 1.426-.479.548-.891.973-.918.931-.027-.027 0-.191.082-.37.069-.178.288-.85.48-1.493.205-.644.425-1.288.493-1.44.069-.15.343-.959.617-1.78a84.5 84.5 0 01.576-1.714c.054-.11.095-.233.109-.274.041-.164.37-1.179.439-1.37a.954.954 0 00.096-.274c.013-.042.054-.138.096-.206.054-.082.287-.754.52-1.508.247-.753.48-1.466.521-1.576.041-.11.096-.274.123-.342.014-.082.11-.356.206-.617.096-.26.192-.575.233-.685.041-.11.082-.233.096-.274.014-.041.068-.165.11-.274.164-.37.644-1.823.644-1.946 0-.055-2.152-.11-4.797-.11h-4.796l-.083.37zM72.179 14.707c-.028.069-.192.137-.384.165-.658.096-1.781.822-2.179 1.439-.343.507-.89 2.028-1.535 4.248-.096.329-.205.59-.246.59-.041 0-.096.136-.096.3-.014.18-.151.727-.302 1.248l-.288.932 11.498-.014c7.072-.013 11.54-.068 11.58-.15.055-.07.206-.124.357-.124.15 0 .425-.096.603-.22.192-.122.342-.191.342-.15 0 .055.247-.137.535-.425.534-.493 1.11-1.425 1.11-1.768 0-.095.069-.178.15-.178.07 0 .11-.055.07-.123-.07-.096.547-2.302.835-3.029.041-.11.11-.329.137-.48.028-.15.137-.52.247-.822.11-.301.26-.78.329-1.069l.137-.52-11.43.013c-6.482.014-11.443.069-11.47.137zM67.478 29.098c-.301.055-.562.096-.59.068-.026-.027-.424.165-.89.398-.918.48-1.795 1.466-1.96 2.206-.04.22-.123.466-.164.548-.055.069-.096.233-.123.343-.028.22-.411 1.48-1.083 3.563-.26.781-.466 1.507-.466 1.603 0 .137 2.179.178 11.073.206 6.085.027 11.128 0 11.197-.041.082-.041.493-.165.945-.26.439-.11.877-.275.973-.37.11-.096.26-.179.343-.179.164 0 .767-.658 1.096-1.22.124-.191.452-1.123.74-2.069.288-.945.7-2.275.918-2.946.206-.686.425-1.398.48-1.617l.082-.37-11.004.013c-6.058.014-11.265.069-11.567.124z" fill="currentColor"/></svg><svg fill="none" viewBox="0 0 14 12" id="icon-check-white" xmlns="http://www.w3.org/2000/svg"><path d="M1 6.252l3.546 3.774 8.454-9" stroke="#fff" stroke-width="2"/></svg><svg fill="none" viewBox="0 0 109 112" id="icon-del-lines" xmlns="http://www.w3.org/2000/svg"><path d="M51.725 2.152c-2.635 4.37-6.036 10.518-5.968 10.766.09.382 22.455 26.238 22.703 26.238.18 0 2.432-3.626 2.928-4.774.27-.564.18-.811-1.194-3.154-.811-1.396-3.716-6.441-6.464-11.216a3272.86 3272.86 0 01-7.162-12.387C53.775 2.76 52.648.868 52.58.868c-.045 0-.428.586-.856 1.284zM41.05 20.643c-1.397 2.432-2.793 4.865-3.109 5.36l-.563.946 3.784 2.793a5578.27 5578.27 0 0019.595 14.572c1.892 1.397 3.468 2.523 3.513 2.478.045-.045.608-1.014 1.261-2.163l1.172-2.072-5.834-6.711c-3.198-3.671-7.117-8.221-8.738-10.09-5.901-6.87-8.289-9.573-8.424-9.573-.067 0-1.284 2.005-2.657 4.46zM35.419 30.418c-.113.158-.743 1.194-1.351 2.32a764.713 764.713 0 01-2.86 4.955c-.947 1.599-1.713 3.018-1.713 3.153 0 .135.676.54 1.532.878 1.396.609 5.676 2.455 15.923 6.892 2.23.969 6.059 2.636 8.536 3.717 2.455 1.058 4.482 1.914 4.528 1.869.18-.203 2.364-4.167 2.364-4.28 0-.09-1.148-.99-2.522-2.004-1.397-1.036-5.135-3.784-8.288-6.148-3.154-2.343-6.712-4.978-7.883-5.856a1031.14 1031.14 0 01-4.843-3.581c-3.04-2.275-3.108-2.32-3.423-1.915zM71.725 40.778c-1.103 1.892-3.626 6.284-5.63 9.752a7801.308 7801.308 0 00-10.608 18.401l-.744 1.306H64.518l.72-1.306c3.019-5.45 8.2-14.144 8.47-14.19.202-.044.72.654 1.44 1.915.609 1.081 2.613 4.595 4.438 7.77l3.356 5.811h4.797c2.657 0 4.82-.045 4.82-.112 0-.18-3.153-5.698-7.973-13.964-.653-1.126-2.996-5.18-5.203-9.01-2.207-3.85-4.392-7.612-4.842-8.4l-.834-1.42-1.982 3.447zM26.162 46.409c-3.198 5.495-4.775 8.356-4.684 8.468.112.09 7.657 1.6 12.072 2.41 1.486.27 8.265 1.577 17.68 3.401 1.621.316 3.288.63 3.739.698l.81.113 1.194-2.072c.653-1.126 1.081-2.14.991-2.23-.113-.09-.766-.405-1.441-.698-1.262-.518-20.518-8.851-25.744-11.126-1.599-.698-2.973-1.261-3.085-1.261-.09 0-.788 1.036-1.532 2.297zM18.414 59.832c-.54.946-2.027 3.536-3.31 5.743-1.262 2.185-2.343 4.144-2.41 4.325-.113.292 2.094.337 18.964.337h19.121l1.554-2.725c.834-1.486 1.487-2.748 1.464-2.77-.045-.045-3.941-.811-8.648-1.69-4.708-.9-9.527-1.824-10.699-2.049-1.17-.248-4.82-.946-8.108-1.577-3.288-.608-6.193-1.17-6.441-1.238-.428-.09-.653.157-1.487 1.644zM5.699 85.73l-3.325 5.758-.816.015-.816.015-.045 2.977-.03 2.992h2.72V94.01h13.6v3.476h2.72l-.03-2.992-.046-2.977-.846-.045-.862-.046-3.279-5.727-3.279-5.742H9.007L5.7 85.73zm6.588 1.935c1.179 2.024 2.13 3.732 2.13 3.777 0 .046-1.934.076-4.306.076s-4.307-.045-4.307-.09c0-.152 4.262-7.571 4.307-7.51.03.03 1.012 1.707 2.176 3.747zM51.606 82.466c-1.874.499-3.476 1.874-4.11 3.506-.439 1.133-.469 3.264-.06 4.352.604 1.617 1.737 2.75 3.4 3.4 1.057.423 3.717.574 4.97.287 1.95-.438 3.597-1.602 4.338-3.052.982-1.95.71-4.806-.65-6.589-.605-.8-2.025-1.632-3.219-1.904-1.284-.302-3.581-.302-4.67 0zm4.7 2.826c1.163.68 1.707 2.297 1.33 3.899-.47 1.934-2.796 2.946-5.26 2.266-1.98-.544-2.9-3.097-1.813-5.032.68-1.224 1.693-1.662 3.672-1.586 1.179.03 1.481.106 2.07.453zM28.063 82.497l-6.392.03v2.418H33.23l.65-1.164c.347-.634.62-1.194.604-1.239-.03-.045-2.916-.075-6.422-.045zM102.561 82.497l-6.392.03v2.418l5.757-.03 5.757-.046.68-1.178c.378-.65.665-1.194.635-1.21-.03-.014-2.932-.014-6.437.016zM45.818 99.904c-.136.076-1.36 1.405-2.72 2.932-1.36 1.541-2.795 3.143-3.188 3.551l-.71.77-.015-3.672v-3.656h-2.841l-.03 5.742-.016 5.742h1.255l1.254-.015 3.249-3.672 3.249-3.672.045 3.672.03 3.687h2.871V99.859l-1.088-.06c-.604-.03-1.209.014-1.345.105zM51.425 105.525v5.788h2.72V106.78h6.044V111.313h2.871V99.829h-1.284c-.71 0-1.33-.015-1.39-.046-.076-.015-.137.922-.152 2.086-.015 1.163-.045 2.176-.045 2.266 0 .091-1.073.136-3.022.106l-3.022-.045v-4.352l-1.36-.046-1.36-.045v5.772zM67.563 99.798l-1.33.046V111.313H68.591l3.249-3.687c1.783-2.04 3.279-3.702 3.354-3.702.06-.015.106 1.647.106 3.687v3.702h2.72V99.829h-2.524l-3.233 3.717-3.234 3.717-.076-3.747-.075-3.763-1.315.045zM90.547 99.904c-.15.076-1.677 1.783-3.415 3.763l-3.143 3.611-.045-3.717-.03-3.732h-2.72v11.484h2.387l3.31-3.732 3.294-3.748.045 3.748.03 3.732h2.72v-11.56h-1.088c-.59 0-1.209.06-1.345.151zM37.946 82.633c-.514.846-6.453 11.273-6.453 11.318 0 .03.726.06 1.632.06l1.617-.015 2.116-3.762c1.163-2.07 2.145-3.763 2.19-3.763.046 0 1.043 1.692 2.237 3.763l2.176 3.777H46.891l-3.279-5.742-3.279-5.727-1.163-.015c-.635 0-1.194.045-1.224.106zM63.377 88.284v5.742l4.73-.045c4.534-.045 4.745-.06 5.335-.378 1.284-.68 1.798-1.753 1.692-3.536-.06-1.239-.56-2.085-1.466-2.493-.68-.317-.755-.453-.317-.59.499-.166.906-1.012.906-1.918 0-1.043-.423-1.723-1.36-2.207-.65-.317-.8-.332-5.092-.332h-4.428v5.757zm7.873-3.098c.106.136.197.469.197.74 0 .938-.121.983-2.871.983h-2.478v-1.964h2.478c2.07 0 2.508.045 2.674.241zm.771 4.247c.393.347.378 1.45-.03 1.858-.287.287-.499.303-3.098.303h-2.796v-2.418h2.826c2.403 0 2.856.03 3.098.257zM77.884 88.269v5.742h3.944c2.6 0 4.156-.06 4.549-.181.906-.272 1.858-1.194 2.16-2.1.378-1.134.257-2.75-.287-3.672-.71-1.225-1.163-1.36-4.578-1.421l-2.917-.06v-4.05h-2.871v5.742zm7.813 1.148c.332.333.377.484.302 1.013-.151 1.073-.393 1.163-2.992 1.163h-2.252v-2.568h2.267c2.251 0 2.282 0 2.675.392zM90.23 88.224l.03 5.712 1.375.045 1.36.045V82.527H90.2l.03 5.697zM26.144 100.162c-.121.196-1.285 2.176-2.57 4.427-1.284 2.237-2.674 4.685-3.097 5.41l-.77 1.33 1.677-.046 1.662-.045 2.13-3.748c2.04-3.536 2.162-3.717 2.373-3.415.121.182 1.103 1.859 2.206 3.748l1.98 3.415 1.677.045c.937.015 1.693-.015 1.693-.075 0-.061-1.466-2.645-3.234-5.712l-3.219-5.591-1.148-.046c-1.058-.045-1.164-.015-1.36.303zM21.67 88.194v1.284h8.901l.62-1.043c.332-.589.65-1.163.695-1.284.09-.212-.453-.242-5.062-.242H21.67v1.285zM96.169 88.194v1.284h8.9l.65-1.163c.362-.65.68-1.224.695-1.285.03-.076-2.267-.12-5.093-.12h-5.152v1.284zM21.777 91.548c-.06.046-.106.635-.106 1.285v1.178h6.301l.71-1.209c.378-.665.696-1.239.696-1.284 0-.121-7.495-.09-7.601.03zM96.169 92.727v1.284h6.286l.634-1.133c.348-.62.635-1.194.635-1.27 0-.075-1.692-.135-3.778-.15l-3.777-.03v1.299z" fill="currentColor"/></svg><svg fill="none" viewBox="0 0 36 49" id="icon-document" xmlns="http://www.w3.org/2000/svg"><path stroke="currentColor" d="M.5.55h35v47H.5z"/><circle cx="27" cy="39.048" r="4" stroke="currentColor"/><path stroke="currentColor" d="M6.75 6.308h22.5M6.75 12.298h22.5M6.75 18.298h22.5M6.75 24.298H21"/></svg><svg fill="none" viewBox="0 0 131 34" id="icon-pek" xmlns="http://www.w3.org/2000/svg"><path d="M51.315.771c-2.476.076-11.596.667-11.691.743-.096.095.037.876.894 5.388l.514 2.742 1.429-.038c.78-.019 2.665-.114 4.189-.21 3.693-.247 10.148-.209 13.423.058l2.666.228.228 1.619c.134.876.21 1.637.172 1.675-.038.02-3.313.077-7.274.096l-7.216.038-.057 3.941-.038 3.96H63.082l-.134 1.276c-.21 2-.247 2.095-1.028 2.228-.38.057-2.19.21-3.998.324-3.142.21-10.663.057-15.5-.343-1.466-.114-1.485-.114-1.504.343 0 .247-.324 2.075-.723 4.075-.4 1.98-.705 3.636-.705 3.655.095.134 5.027.476 10.587.724 5.179.247 7.16.266 10.567.095 4.646-.228 8.816-.514 9.768-.704.724-.115.8-.248 1.485-2.895 1.41-5.426 1.943-12.338 1.41-17.936-.248-2.532-1.01-6.474-1.676-8.644l-.533-1.714-2.38-.229C63.52.752 57.465.581 51.314.771zM121.537 1.343l-1.39.076v9.501H131V1.458l-2.133-.115c-2.113-.133-4.569-.114-7.33 0zM0 17.013v15.613h11.234l.038-11.195.057-11.177 6.34-.057 6.322-.039v22.469h11.234V1.4H0v15.613zM78.257 17.013v15.613h11.044l.038-5.864.057-5.846 2.019-.057 2.018-.057.552.724c.286.4 2.323 3.065 4.532 5.902l3.998 5.198h13.843l-1.295-1.58a195.35 195.35 0 01-2.437-2.97 3988.694 3988.694 0 00-6.474-7.921c-.762-.952-1.828-2.247-2.342-2.894l-.971-1.162 2.133-2.456c1.18-1.352 3.16-3.656 4.417-5.103 1.257-1.447 3.123-3.58 4.132-4.741 1.028-1.162 1.866-2.17 1.866-2.266 0-.076-2.856-.133-6.36-.133h-6.359l-4.532 5.655-4.55 5.674h-4.19l-.057-5.674-.038-5.655H78.257v15.613zM120.147 28.152c0 3.827.038 4.475.285 4.475.153 0 1.352.095 2.685.21 1.828.17 3.028.17 5.141-.02L131 32.57v-8.892h-10.853v4.474z" fill="currentColor"/></svg></svg>